<?xml version="1.0" encoding="UTF-8"?><!DOCTYPE svg PUBLIC "-//W3C//DTD SVG 1.1//EN" "http://www.w3.org/Graphics/SVG/1.1/DTD/svg11.dtd"><svg xmlns="http://www.w3.org/2000/svg"><symbol id="icon_arrow-up" viewBox="0 0 444.819 444.819"><path d="M433.968 278.657L248.387 92.79c-7.419-7.044-16.08-10.566-25.977-10.566-10.088 0-18.652 3.521-25.697 10.566L10.848 278.657C3.615 285.887 0 294.549 0 304.637c0 10.28 3.619 18.843 10.848 25.693l21.411 21.413c6.854 7.23 15.42 10.852 25.697 10.852 10.278 0 18.842-3.621 25.697-10.852L222.41 213.271 361.168 351.74c6.848 7.228 15.413 10.852 25.7 10.852 10.082 0 18.747-3.624 25.975-10.852l21.409-21.412c7.043-7.043 10.567-15.608 10.567-25.693 0-10.09-3.614-18.751-10.851-25.978z"/></symbol><symbol id="icon_home" viewBox="0 0 612 612"><path d="M458.388 230.724c0-3.672-1.428-6.528-4.284-8.568L313.344 113.22c-4.08-3.264-8.568-3.264-13.464 0L164.016 222.156c-2.448 2.04-3.672 4.896-3.672 8.568v196.452c0 3.267 1.02 5.916 3.06 7.956s4.488 3.063 7.344 3.063h80.784c3.264 0 5.916-1.021 7.956-3.063 2.04-2.04 3.06-4.689 3.06-7.956V306.613h93.024v120.562c0 3.267 1.02 5.916 3.06 7.956s4.692 3.063 7.956 3.063h80.784c3.264 0 5.916-1.021 7.956-3.063s3.06-4.689 3.06-7.956V230.724zM306 0c42.024 0 81.702 8.058 119.034 24.174s69.768 37.944 97.308 65.484 49.368 59.976 65.484 97.308S612 263.976 612 306c0 28.152-3.672 55.284-11.016 81.396-7.347 26.109-17.646 50.487-30.906 73.134a305.087 305.087 0 0 1-47.736 61.812 304.924 304.924 0 0 1-61.812 47.736c-22.646 13.26-47.022 23.562-73.136 30.906C361.284 608.328 334.152 612 306 612s-55.284-3.672-81.396-11.016c-26.112-7.347-50.49-17.646-73.134-30.906s-43.248-29.172-61.812-47.736a305.032 305.032 0 0 1-47.736-61.812c-13.26-22.646-23.562-47.022-30.906-73.135C3.672 361.284 0 334.152 0 306s3.672-55.284 11.016-81.396 17.646-50.49 30.906-73.134 29.172-43.248 47.736-61.812 39.168-34.476 61.812-47.736 47.022-23.562 73.134-30.906S277.848 0 306 0z"/></symbol><symbol id="icon_map" viewBox="0 0 299.997 299.997"><circle cx="150.437" cy="110.572" r="24.149"/><path d="M149.996 0C67.157 0 .001 67.158.001 149.997c0 82.837 67.156 150 149.995 150s150-67.163 150-150C299.996 67.158 232.835 0 149.996 0zm-.311 68.678c.106 0 .21-.005.314-.01.104.005.207.01.314.01 25.274.399 45.834 21.288 45.834 46.568 0 30.908-33.024 62.205-46.148 73.419-.877-.75-1.849-1.595-2.889-2.521-.018-.016-.034-.029-.049-.044-14.524-12.906-43.209-42.045-43.209-70.854-.001-25.28 20.561-46.168 45.833-46.568zm.965 163.572c-27.663 0-55.669-7.936-55.669-23.098 0-10.641 13.79-17.717 31.569-20.995a219.685 219.685 0 0 0 9.55 9.049c-19.366 2.163-30.744 8.294-30.744 11.943 0 4.484 17.195 12.724 45.294 12.724 28.099 0 45.297-8.24 45.297-12.724 0-3.724-11.858-10.009-31.927-12.052a220.98 220.98 0 0 0 9.627-9.142c18.313 3.188 32.674 10.335 32.674 21.197 0 15.162-28.006 23.098-55.671 23.098z"/></symbol><symbol id="icon_monitoring" viewBox="0 0 356.496 356.496"><path d="M335.006 28.814H21.49C9.64 28.814 0 38.454 0 50.305v255.887c0 11.85 9.641 21.49 21.49 21.49h313.516c11.85 0 21.49-9.64 21.49-21.49V50.305c0-11.851-9.641-21.491-21.49-21.491zm-73.425 281.651h-19.245a7 7 0 1 1 0-14h19.245a7 7 0 1 1 0 14zm55.396 0h-19.245a7 7 0 1 1 0-14h19.245a7 7 0 1 1 0 14zm14.519-25.718H25v-91.79s-.127-2.964 3.134-2.964h28.989c3 0 5.398 2.722 5.398 2.722l11.102 12.557c1.629 1.842 4.076 2.653 6.394 2.118 2.315-.535 4.16-2.339 4.813-4.706 0 0 9.27-33.924 12.51-45.191.783-2.724 1.691-.925 1.691-.925l8.602 20.643c1.151 2.759 3.933 4.613 6.922 4.613h27.756c2.063 0 2.458 2.111 2.458 2.111l12.322 48.552c.85 3.339 3.606 4.878 5.96 4.921l.104.001c2.332 0 5.075-1.441 6.033-4.696 0 0 13.983-47.222 18.564-62.986.829-2.853 2.007.101 2.007.101l9.178 18.746c1.246 2.55 3.991 4.264 6.83 4.264h29.923c3.212 0 6.104-2.147 7.033-5.224 0 0 8.776-29.207 11.75-38.927.567-1.854.962.494.962.494l11.673 47.063c.67 2.717 2.818 4.659 5.473 4.949 2.657.292 5.172-1.143 6.415-3.653l9.969-20.162s.325-.969 1.742-.969h39.208c1.625 0 1.581 1.382 1.581 1.382v106.956zm0-121.748c0 1.5-1.58 1.41-1.58 1.41h-43.199c-2.826 0-5.566 1.702-6.822 4.237 0 0-3.098 6.177-4.084 8.259-.854 1.802-1.157-.09-1.157-.09l-13.086-52.764c-.825-3.346-3.571-4.904-5.925-4.965-2.366-.077-5.177 1.354-6.174 4.655l-16.852 55.826s-.202 1.27-2.077 1.27h-20.541c-1.458 0-2.1-1.248-2.1-1.248l-14.976-30.585c-1.204-2.464-3.667-3.924-6.282-3.697-2.613.218-4.805 2.058-5.586 4.696l-16.7 56.662s-.67 3.167-1.456-.074c-1.901-7.84-7.938-31.279-7.938-31.279-.81-3.18-3.779-5.489-7.061-5.489h-27.464c-2.813 0-3.699-1.961-3.699-1.961l-13.793-33.104c-1.097-2.629-3.557-4.219-6.265-4.046-2.709.17-4.949 2.055-5.706 4.797 0 0-10.619 36.96-13.676 49.407-1.3 5.292-4.064 1.799-4.064 1.799l-5.257-5.946c-1.514-1.712-3.873-2.775-6.158-2.775H28.373c-3.5 0-3.373-2.786-3.373-2.786V71.747h306.496v91.252z"/></symbol><symbol id="icon_mrf" viewBox="0 0 60 60"><path d="M10.5 6.5C8.019 6.5 6 8.519 6 11s2.019 4.5 4.5 4.5S15 13.481 15 11s-2.019-4.5-4.5-4.5zm0 7C9.122 13.5 8 12.379 8 11s1.122-2.5 2.5-2.5S13 9.621 13 11s-1.122 2.5-2.5 2.5z"/><circle cx="50" cy="9.5" r="1"/><circle cx="46" cy="9.5" r="1"/><circle cx="52" cy="12.5" r="1"/><circle cx="48" cy="12.5" r="1"/><circle cx="42" cy="9.5" r="1"/><circle cx="44" cy="12.5" r="1"/><circle cx="38" cy="9.5" r="1"/><circle cx="40" cy="12.5" r="1"/><circle cx="34" cy="9.5" r="1"/><circle cx="36" cy="12.5" r="1"/><path d="M60 16.892V5.108A4.613 4.613 0 0 0 55.392.5H4.608A4.613 4.613 0 0 0 0 5.108v11.783c0 1.469.703 2.764 1.777 3.608C.703 21.344 0 22.64 0 24.108v11.783c0 1.469.703 2.764 1.777 3.608C.703 40.344 0 41.64 0 43.108v11.783A4.613 4.613 0 0 0 4.608 59.5h50.783a4.613 4.613 0 0 0 4.608-4.608V43.108c0-1.469-.703-2.764-1.777-3.608C59.297 38.656 60 37.36 60 35.892V24.108c0-1.469-.703-2.764-1.777-3.608C59.297 19.656 60 18.36 60 16.892zm-2 26.216v11.783a2.611 2.611 0 0 1-2.608 2.608H4.608A2.61 2.61 0 0 1 2 54.892V43.108A2.611 2.611 0 0 1 4.608 40.5h50.783A2.611 2.611 0 0 1 58 43.108zm0-19v11.783a2.611 2.611 0 0 1-2.608 2.608H4.608A2.61 2.61 0 0 1 2 35.892V24.108A2.611 2.611 0 0 1 4.608 21.5h50.783A2.611 2.611 0 0 1 58 24.108zM4.608 19.5A2.611 2.611 0 0 1 2 16.892V5.108A2.611 2.611 0 0 1 4.608 2.5h50.783A2.611 2.611 0 0 1 58 5.108v11.783a2.611 2.611 0 0 1-2.608 2.608H4.608z"/><path d="M10.5 34.5c2.481 0 4.5-2.019 4.5-4.5s-2.019-4.5-4.5-4.5S6 27.519 6 30s2.019 4.5 4.5 4.5zm0-7c1.378 0 2.5 1.121 2.5 2.5s-1.122 2.5-2.5 2.5S8 31.379 8 30s1.122-2.5 2.5-2.5z"/><circle cx="50" cy="28.5" r="1"/><circle cx="46" cy="28.5" r="1"/><circle cx="52" cy="31.5" r="1"/><circle cx="48" cy="31.5" r="1"/><circle cx="42" cy="28.5" r="1"/><circle cx="44" cy="31.5" r="1"/><circle cx="38" cy="28.5" r="1"/><circle cx="40" cy="31.5" r="1"/><circle cx="34" cy="28.5" r="1"/><circle cx="36" cy="31.5" r="1"/><path d="M10.5 53.5c2.481 0 4.5-2.019 4.5-4.5s-2.019-4.5-4.5-4.5S6 46.519 6 49s2.019 4.5 4.5 4.5zm0-7c1.378 0 2.5 1.121 2.5 2.5s-1.122 2.5-2.5 2.5S8 50.379 8 49s1.122-2.5 2.5-2.5z"/><circle cx="50" cy="47.5" r="1"/><circle cx="46" cy="47.5" r="1"/><circle cx="52" cy="50.5" r="1"/><circle cx="48" cy="50.5" r="1"/><circle cx="42" cy="47.5" r="1"/><circle cx="44" cy="50.5" r="1"/><circle cx="38" cy="47.5" r="1"/><circle cx="40" cy="50.5" r="1"/><circle cx="34" cy="47.5" r="1"/><circle cx="36" cy="50.5" r="1"/></symbol><symbol id="icon_planet" viewBox="0 0 512 512"><path d="M176.748 182.811l-.013-.028zM106.342 321.731v.013l.094-.451zM209.806 231.019l.014-.061.087-.417zM236.261 386.136l.013-.042.008-.026zM357.053 208.842c-22.333 0-40.421 18.095-40.421 40.421s18.089 40.421 40.421 40.421c22.326 0 40.421-18.095 40.421-40.421s-18.095-40.421-40.421-40.421zm0 60.632c-11.143 0-20.211-9.068-20.211-20.211s9.068-20.211 20.211-20.211c11.143 0 20.211 9.068 20.211 20.211s-9.068 20.211-20.211 20.211z"/><path d="M256 0c-38.589 0-75.102 8.656-107.911 23.956C132.352 9.155 111.051 0 87.58 0 39.289 0 .001 38.535.001 85.895c0 17.812 10.907 40.26 24.367 61.238C8.806 180.183.001 217.047.001 255.999.001 397.379 114.601 512 256 512s255.999-114.621 255.999-255.999S397.4 0 256 0zM20.212 85.895c0-36.292 30.174-65.684 67.368-65.684 37.201 0 67.368 29.393 67.368 65.684 0 36.271-67.368 109.474-67.368 109.474S20.212 122.166 20.212 85.895zm-.002 170.101a234.303 234.303 0 0 1 17.631-89.293c14.801 20.13 29.527 36.547 34.87 42.348l14.868 16.162 14.868-16.162c12.146-13.191 72.71-81.132 72.71-123.156 0-16.855-5.045-32.546-13.628-45.824a234.159 234.159 0 0 1 51.301-15.839l-5.478 9.849c-2.647 4.796-3.632 9.943-3.658 15.023.055 6.393 1.549 12.84 5.524 18.513l-.013-.013 15.366 21.585c.842 1.145 1.967 3.509 2.702 6.137.754 2.627 1.179 5.558 1.172 7.842a14.706 14.706 0 0 1-.202 2.594l.007-.021-3.989 21.733c-.215 1.449-1.482 4.291-3.354 6.649-1.819 2.398-4.257 4.331-5.605 4.904l-27.021 12.47c-8.643 4.021-13.703 12.564-13.703 21.477 0 3.267.694 6.649 2.162 9.836l11.406 24.831c.593 1.266 1.273 3.469 1.725 5.922.458 2.453.707 5.174.707 7.619 0 2.162-.209 4.136-.499 5.389l-.134.546-3.106 13.488c-.33 1.623-1.786 4.675-3.793 7.249-1.967 2.614-4.541 4.803-6.016 5.544l-19.962 10.591c-1.024.58-3.348 1.192-5.807 1.166-2.971.047-6.056-.89-7.209-1.704l-16.33-10.516c-5.423-3.429-11.426-4.709-17.381-4.749-5.48.034-11.041 1.131-16.158 4.123l-16.354 9.679c-3.146 1.852-5.801 4.412-7.653 7.485-1.846 3.065-2.857 6.629-2.85 10.206-.027 5.376 2.264 10.665 6.09 14.599l-.013-.013 9.155 9.552c.829.835 2.054 2.768 2.87 5.039.829 2.256 1.287 4.837 1.273 6.77.007.815-.074 1.529-.182 2.075l-1.826 8.745c-.404 2.069-1.846 5.706-3.759 8.974-1.867 3.288-4.299 6.36-5.881 7.747l-8.28 7.424c-5.51 4.966-12.632 12.396-17.711 18.384-18.363-33.579-28.852-72.073-28.852-112.979zm169.406 186.412l-10.576 36.413c-48.843-16.916-90.464-49.408-118.825-91.581.916-1.132 1.899-2.358 2.944-3.638 3.989-4.951 12.214-13.581 17.145-17.981l8.273-7.424c3.928-3.557 7.141-7.95 9.903-12.698 2.721-4.769 4.911-9.754 6.03-14.929l1.839-8.839c.41-2.028.593-4.069.593-6.117-.007-4.709-.922-9.331-2.513-13.716-1.617-4.372-3.866-8.515-7.249-12.073l-9.155-9.56-.021-.013-.357-.485.485-.397 16.364-9.681.021-.007c.977-.627 3.354-1.321 5.841-1.294 2.695-.034 5.383.788 6.447 1.536l16.317 10.51c5.646 3.564 11.918 4.877 18.155 4.924 5.174-.027 10.381-.956 15.279-3.517l19.962-10.591c5.079-2.742 9.129-6.656 12.577-11.088 3.396-4.48 6.13-9.412 7.458-15.023l3.261-14.174c.701-3.186.977-6.44.984-9.782a63.116 63.116 0 0 0-1.051-11.298c-.694-3.719-1.684-7.296-3.227-10.678l-11.419-24.859-.013-.027-.289-1.34c0-1.307.761-2.6 1.96-3.126l27.029-12.47c5.376-2.534 9.599-6.413 13.089-10.867 3.449-4.493 6.151-9.552 7.262-15.394l3.989-21.727.007-.021c.378-2.069.525-4.136.533-6.198-.013-4.507-.714-9.041-1.96-13.399-1.266-4.359-3.012-8.529-5.673-12.295l-15.36-21.578-.007-.013c-.843-1.064-1.812-3.961-1.765-6.763-.021-2.209.552-4.265 1.105-5.194l12.753-22.919c6.036-.485 12.099-.809 18.244-.809 117.208 0 214.683 85.975 232.751 198.17l-9.027-5.019c-3.739-2.062-7.774-3.409-11.999-4.386-4.224-.956-8.569-1.489-12.827-1.495-2.317 0-4.601.155-6.892.559l-1.867.33c-17.055-31.763-50.577-53.422-89.085-53.422-55.72 0-101.052 45.332-101.052 101.052 0 34.055 33.435 83.28 59.203 116.163l-15.421 17.341c-.922 1.092-3.274 2.802-5.962 3.921-2.661 1.172-5.659 1.799-7.451 1.772l-.64-.021-29.461-2.27-.741-.162-.034-.013v-.101l.094-.606.027-.074 5.255-17.509a25.84 25.84 0 0 0 1.058-7.398c-.013-4.796-1.219-9.384-3.354-13.528-2.143-4.123-5.276-7.882-9.573-10.597l-11.816-7.383c-4.049-2.526-8.577-3.679-12.982-3.672-7.505.013-15.017 3.274-19.975 9.822l-35.819 47.758a23.509 23.509 0 0 0-4.703 14.114c-.007 7.12 3.241 14.255 9.418 18.896l13.103 9.822c.72.519 1.765 1.738 2.479 3.335.741 1.576 1.152 3.469 1.139 4.924a7.07 7.07 0 0 1-.235 1.877zm248.28-186.401c0 44.632-80.842 134.73-80.842 134.73s-80.842-90.099-80.842-134.73c0-44.665 36.19-80.843 80.842-80.843 44.645 0 80.842 36.177 80.842 80.843zM256 491.789c-19.86 0-39.154-2.5-57.593-7.148l10.624-36.615a27.095 27.095 0 0 0 1.03-7.492c-.013-4.696-1.077-9.216-2.999-13.393-1.933-4.157-4.722-8.031-8.711-11.041l-13.097-9.822c-.862-.64-1.321-1.631-1.327-2.721.007-.735.202-1.387.654-1.988l35.827-47.764c.66-.95 2.224-1.752 3.8-1.731.909 0 1.684.236 2.27.599l11.81 7.383c.694.418 1.657 1.408 2.351 2.762.701 1.34 1.098 2.971 1.085 4.224 0 .66-.094 1.2-.209 1.589l-5.234 17.462a22.172 22.172 0 0 0-.99 6.534c-.021 5.2 1.98 10.348 5.571 14.06 3.571 3.753 8.596 5.988 13.871 6.373l29.461 2.27c.735.055 1.462.081 2.19.081 5.416-.027 10.584-1.347 15.455-3.422 4.851-2.115 9.371-4.951 13.063-9.047l13.191-14.848c6.164 7.398 11.136 13.036 13.925 16.141l15.037 16.761 15.037-16.768c14.37-16.007 86.016-98.378 86.016-148.224 0-9.822-1.476-19.295-4.102-28.281.303-.007.573-.034.896-.034 2.5-.007 5.557.35 8.341.984 2.776.62 5.308 1.57 6.67 2.345l21.498 11.944c.242 4.325.384 8.664.384 13.036C491.79 386.013 386.014 491.789 256 491.789z"/><path d="M94.172 252.312l.011-.006.002-.001zM89.256 47.151c-18.614 0-33.677 15.07-33.677 33.684 0 18.607 15.064 33.684 33.678 33.684s33.69-15.077 33.69-33.684c.001-18.607-15.077-33.684-33.691-33.684zm.001 47.157c-7.431.007-13.467-6.043-13.467-13.473 0-7.43 6.036-13.473 13.467-13.473 7.438 0 13.48 6.043 13.48 13.473.001 7.43-6.042 13.473-13.48 13.473z"/></symbol></svg>